<svg xmlns="http://www.w3.org/2000/svg" viewBox="0 0 34 34">
  <path fill="currentColor" fill-rule="evenodd" d="M23.6475275,18.1253076 C23.4752754,19.1490176 23.0752285,20.0939807 22.4966018,20.9074646 L24.1579564,22.568884 L22.5676119,24.1592907 L20.9062573,22.4978712 C20.0928052,23.0758174 19.1492852,23.4765829 18.124209,23.6488418 L18.124209,26 L15.8743848,26 L15.8743848,23.6488418 C14.8507148,23.4765829 13.9057886,23.0765204 13.0923365,22.4978712 L11.430982,24.1592907 L9.84063745,22.568884 L11.501992,20.9074646 C10.9240684,20.0939807 10.5233185,19.1490176 10.3510663,18.1253076 L8,18.1253076 L8,15.8753955 L10.3510663,15.8753955 C10.5233185,14.8516855 10.9233654,13.9067224 11.501992,13.0932385 L9.84063745,11.4325222 L11.4323881,9.84070935 L13.0930396,11.5021288 C13.9064917,10.9241826 14.8514179,10.5234171 15.8750879,10.3511582 L15.8750879,8 L18.1249121,8 L18.1249121,10.3511582 C19.1499883,10.5234171 20.0935083,10.9234796 20.9069604,11.5021288 L22.5676119,9.84070935 L24.1593625,11.4325222 L22.498008,13.0932385 C23.0759316,13.9067224 23.4766815,14.8516855 23.6489337,15.8753955 L26,15.8753955 L26,18.1253076 L23.6489337,18.1253076 L23.6475275,18.1253076 Z M19.2491212,17.0003515 C19.2491212,18.2420218 18.2409187,19.2502637 16.9992969,19.2502637 C15.7576752,19.2502637 14.7494727,18.2420218 14.7494727,17.0003515 C14.7494727,15.7586813 15.7576752,14.7504394 16.9992969,14.7504394 C18.2409187,14.7504394 19.2491212,15.7586813 19.2491212,17.0003515 Z"></path>
</svg>
