<svg xmlns="http://www.w3.org/2000/svg" viewBox="0 0 34 34">
  <path fill="currentColor" fill-rule="evenodd" d="M14.1829973,22.4735541 C15.3721291,22.4735541 16.3361109,21.5095723 16.3361109,20.3204405 C16.3361109,19.1313087 15.3721291,18.1673269 14.1829973,18.1673269 C12.9938655,18.1673269 12.0298837,19.1313087 12.0298837,20.3204405 C12.0298837,21.5095723 12.9938655,22.4735541 14.1829973,22.4735541 Z M20.6500001,20.0744265 C20.6500001,16.697522 17.925515,13.96 14.5646923,13.96 C13.991374,13.96 13.4276062,14.0399548 12.8857502,14.1959578 C12.3468155,14.3511198 12.0351072,14.915887 12.1895303,15.4574005 C12.3439533,15.9989141 12.9060309,16.3121139 13.4449656,16.1569519 C13.8054375,16.0531703 14.1810026,15.9999068 14.5646923,15.9999068 C16.8042708,15.9999068 18.6198079,17.8241314 18.6198079,20.0744265 C18.6198079,20.448426 18.5699215,20.8147546 18.4726221,21.1670484 C18.3227096,21.7098401 18.6391055,22.2719694 19.1793123,22.4225994 C19.719519,22.5732293 20.2789713,22.2553194 20.4288839,21.7125277 C20.5751279,21.1830188 20.6500001,20.6332132 20.6500001,20.0744265 Z M24.5,19.6360531 C24.5,14.314208 20.1856842,10 14.8637059,10 C14.143353,10 13.4326202,10.0792079 12.7408678,10.234796 C12.2295849,10.3497932 11.9083342,10.8574831 12.0233342,11.3687532 C12.1383342,11.8800233 12.6460368,12.201266 13.1573197,12.0862689 C13.7126161,11.9613723 14.2836877,11.897729 14.8637059,11.897729 C19.1375712,11.897729 22.6022236,15.3622947 22.6022236,19.6360531 C22.6022236,20.2161538 22.5385574,20.787305 22.4136164,21.3426749 C22.2985974,21.8539407 22.6198293,22.3616425 23.1311079,22.4766586 C23.6423866,22.5916747 24.1501011,22.2704508 24.2651201,21.759185 C24.4207635,21.0673409 24.5,20.3565087 24.5,19.6360531 Z"></path>
</svg>
