<svg xmlns="http://www.w3.org/2000/svg" viewBox="0 0 34 34">
  <path fill="currentColor" fill-rule="evenodd" d="M10,9.50370994 C10,8.67323387 10.6752491,8 11.4982452,8 L22.5017548,8 C23.3292128,8 24,8.66197696 24,9.50370994 L24,24.4962901 C24,25.3267661 23.3247509,26 22.5017548,26 L11.4982452,26 C10.6707872,26 10,25.338023 10,24.4962901 L10,9.50370994 Z M13,12 L21,12 L21,13 L13,13 L13,12 Z M13,15 L21,15 L21,16 L13,16 L13,15 Z M13,18 L21,18 L21,19 L13,19 L13,18 Z M13,21 L21,21 L21,22 L13,22 L13,21 Z"></path>
</svg>
