<svg xmlns="http://www.w3.org/2000/svg" width="44" height="44" viewBox="0 0 44 44">
  <path fill="currentColor" fill-rule="evenodd" d="M21.9282329,26 L20.4536222,26 L20.4536222,22.2159783 L16.4807041,22.2159783 L16.4807041,26 L15,26 L15,17.1279621 L16.4807041,17.1279621 L16.4807041,21.027759 L20.4536222,21.027759 L20.4536222,17.1279621 L21.9282329,17.1279621 L21.9282329,26 Z M30.4996615,26 L24.6073121,26 L24.6073121,24.9823968 L27.4955992,21.8320921 C27.966827,21.3161789 28.2918068,20.8926895 28.4705484,20.5616114 C28.64929,20.2305332 28.7386594,19.906569 28.7386594,19.5897089 C28.7386594,19.1916026 28.6228854,18.8584983 28.3913338,18.5903859 C28.1597822,18.3222735 27.8469891,18.1882194 27.4529452,18.1882194 C26.9329696,18.1882194 26.5470561,18.3344603 26.295193,18.6269465 C26.0433298,18.9194327 25.9174001,19.3215953 25.9174001,19.8334462 L24.4854435,19.8334462 L24.4732566,19.7968856 C24.4529451,19.0087977 24.7108978,18.3456357 25.2471225,17.8073798 C25.7833473,17.2691239 26.5186142,17 27.4529452,17 C28.30603,17 28.9803631,17.2356104 29.4759648,17.7068382 C29.9715665,18.178066 30.2193636,18.7934965 30.2193636,19.5531483 C30.2193636,20.0609369 30.0761693,20.5463755 29.7897766,21.0094787 C29.5033838,21.4725819 29.0595832,22.0352032 28.4583615,22.6973595 L26.4840894,24.7813135 L26.5023697,24.8178741 L30.4996615,24.8178741 L30.4996615,26 Z"></path>
</svg>
