<svg xmlns="http://www.w3.org/2000/svg" width="44" height="44" viewBox="0 0 44 44">
  <path fill="currentColor" fill-rule="evenodd" d="M21.9282329,26 L20.4536222,26 L20.4536222,22.2159783 L16.4807041,22.2159783 L16.4807041,26 L15,26 L15,17.1279621 L16.4807041,17.1279621 L16.4807041,21.027759 L20.4536222,21.027759 L20.4536222,17.1279621 L21.9282329,17.1279621 L21.9282329,26 Z M25.8279425,20.8391188 L26.8432963,20.8391188 C27.3159289,20.8391188 27.6563794,20.7219638 27.8646581,20.4876502 C28.0729369,20.2533366 28.1770747,19.921898 28.1770747,19.4933244 C28.1770747,19.0727616 28.0649263,18.7473309 27.8406261,18.5170227 C27.6163259,18.2867145 27.2858886,18.1715621 26.8493043,18.1715621 C26.4527736,18.1715621 26.1293456,18.2847118 25.8790106,18.5110147 C25.6286756,18.7373176 25.5035099,19.0347111 25.5035099,19.4032043 L24.0976354,19.4032043 L24.0856194,19.3671562 C24.0615873,18.698261 24.3109172,18.1365176 24.8336167,17.6819092 C25.3563163,17.2273008 26.0221975,17 26.8312803,17 C27.6844221,17 28.3653231,17.2162862 28.8740039,17.6488652 C29.3826847,18.0814441 29.6370213,18.6962577 29.6370213,19.4933244 C29.6370213,19.865823 29.5228702,20.2263 29.2945647,20.5747664 C29.0662591,20.9232327 28.7418298,21.1935905 28.3212669,21.3858478 C28.8179316,21.5620837 29.1834153,21.8304388 29.4177289,22.1909212 C29.6520425,22.5514037 29.7691975,22.961947 29.7691975,23.4225634 C29.7691975,24.2236355 29.4938331,24.853469 28.943096,25.3120828 C28.392359,25.7706966 27.6884274,26 26.8312803,26 C26.0221975,26 25.3422977,25.7847151 24.7915607,25.3541389 C24.2408236,24.9235626 23.9774751,24.3277742 24.0015073,23.5667557 L24.0135233,23.5307076 L25.4193978,23.5307076 C25.4193978,23.9192276 25.54957,24.2336437 25.8099185,24.4739653 C26.0702669,24.7142869 26.4167254,24.8344459 26.8493043,24.8344459 C27.3019101,24.8344459 27.6583818,24.7122843 27.9187302,24.4679573 C28.1790787,24.2236303 28.3092509,23.8771718 28.3092509,23.4285714 C28.3092509,22.9359121 28.1900932,22.5724311 27.9517743,22.3381175 C27.7134553,22.1038039 27.3439664,21.9866489 26.8432963,21.9866489 L25.8279425,21.9866489 L25.8279425,20.8391188 Z"></path>
</svg>
