<svg xmlns="http://www.w3.org/2000/svg" width="44" height="44" viewBox="0 0 44 44">
  <g fill="currentColor">
    <path d="M31,28 L30,29 L30,28 L31,28 Z M14,28 L30,28 L30,16 L14,16 L14,28 Z M13,15 L31,15 L31,29 L13,29 L13,15 Z"></path>
    <path d="M25.9883361,21.8638065 L25.2319526,21.9195178 L25.6425595,22.3317575 L25.9883361,21.8638065 Z M22.9259965,26.0081728 L25.6425595,22.3317575 L30.1457457,26.8528511 L30.8542543,26.1471489 L25.5298543,20.8015758 L22.7291759,24.5918272 L20.0614103,22.5287551 L13.1848443,28.1118288 L13.8151557,28.8881712 L20.0765207,23.8045783 L22.9259965,26.0081728 Z"></path>
    <path d="M19,21 C19.5522847,21 20,20.5522847 20,20 C20,19.4477153 19.5522847,19 19,19 C18.4477153,19 18,19.4477153 18,20 C18,20.5522847 18.4477153,21 19,21 Z M19,22 C17.8954305,22 17,21.1045695 17,20 C17,18.8954305 17.8954305,18 19,18 C20.1045695,18 21,18.8954305 21,20 C21,21.1045695 20.1045695,22 19,22 Z"></path>
  </g>
</svg>
