<svg xmlns="http://www.w3.org/2000/svg" width="44" height="44" viewBox="0 0 44 44">
  <path fill="currentColor" fill-rule="evenodd" d="M20.8913498,21.594404 L20.5363208,21.239375 C19.7587491,20.4618033 18.488544,20.4616759 17.7051839,21.2450361 L15.5922344,23.3579856 C14.8007244,24.1494956 14.8063397,25.4088889 15.5865733,26.1891225 L17.0037382,27.6062873 C17.7813099,28.3838591 19.051515,28.3839864 19.8348751,27.6006263 L21.9478246,25.4876767 C22.7393346,24.6961667 22.7337193,23.4367735 21.9534857,22.6565399 L21.5984566,22.3015108 L22.3055634,21.594404 L22.6605924,21.9494331 C23.4381642,22.7270048 24.7083692,22.7271322 25.4917293,21.943772 L27.6046789,19.8308225 C28.3961889,19.0393125 28.3905735,17.7799192 27.6103399,16.9996856 L26.1931751,15.5825208 C25.4156033,14.804949 24.1453983,14.8048217 23.3620382,15.5881818 L21.2490886,17.7011313 C20.4575786,18.4926414 20.463194,19.7520346 21.2434276,20.5322682 L21.5984566,20.8872973 L20.8913498,21.594404 Z M20.8913498,23.0086176 L21.2463789,23.3636466 C21.6388993,23.7561671 21.6388924,24.3823954 21.2407178,24.78057 L19.1277683,26.8935195 C18.7354278,27.28586 18.098384,27.2867195 17.710845,26.8991806 L16.2936801,25.4820157 C15.9011597,25.0894952 15.9011666,24.4632669 16.2993412,24.0650924 L18.4122907,21.9521428 C18.8046312,21.5598023 19.441675,21.5589428 19.829214,21.9464818 L20.1842431,22.3015108 L18.4233109,24.062443 C18.220235,24.2655189 18.221214,24.5811224 18.4164761,24.7763846 C18.6060277,24.9659361 18.9313808,24.9685867 19.1304177,24.7695498 L20.8913498,23.0086176 Z M22.3055634,20.1801905 L21.9505344,19.8251614 C21.5580139,19.432641 21.5580209,18.8064127 21.9561954,18.4082381 L24.069145,16.2952886 C24.4614855,15.9029481 25.0985293,15.9020885 25.4860683,16.2896275 L26.9032331,17.7067924 C27.2957536,18.0993129 27.2957466,18.7255412 26.8975721,19.1237157 L24.7846225,21.2366653 C24.392282,21.6290058 23.7552382,21.6298653 23.3676992,21.2423263 L23.0126702,20.8872973 L24.7736024,19.1263651 C24.9766783,18.9232892 24.9756993,18.6076857 24.7804371,18.4124235 C24.5908856,18.222872 24.2655325,18.2202214 24.0664956,18.4192583 L22.3055634,20.1801905 Z"></path>
</svg>
