<svg xmlns="http://www.w3.org/2000/svg" width="44" height="44" viewBox="0 0 44 44">
  <path fill="currentColor" fill-rule="evenodd" d="M16.2548828,20 L15.1030273,20 L15.1030273,16.1821289 L13.9921875,16.1821289 L13.9921875,15.3686523 L16.2548828,15.0200195 L16.2548828,20 Z M17.2871094,29 L13.8041992,29 L13.8041992,28.2480469 L15.4038086,26.5664063 C15.6066091,26.3339832 15.7558589,26.1266285 15.8515625,25.9443359 C15.9472661,25.7620434 15.9951172,25.6036791 15.9951172,25.4692383 C15.9951172,25.2778311 15.9466964,25.1251633 15.8498535,25.0112305 C15.7530106,24.8972976 15.6077484,24.840332 15.4140625,24.840332 C15.2408846,24.840332 15.1047368,24.9138176 15.0056152,25.060791 C14.9064936,25.2077644 14.8569336,25.3951812 14.8569336,25.6230469 L13.7290039,25.6230469 L13.722168,25.6025391 C13.7107747,25.1422503 13.8611638,24.7520361 14.1733398,24.4318848 C14.4855159,24.1117334 14.899086,23.9516602 15.4140625,23.9516602 C15.9609402,23.9516602 16.3876124,24.0860989 16.6940918,24.3549805 C17.0005712,24.623862 17.1538086,24.9918596 17.1538086,25.4589844 C17.1538086,25.7734391 17.0723478,26.0514311 16.9094238,26.2929688 C16.7464998,26.5345064 16.4462912,26.8933895 16.0087891,27.3696289 L15.3354492,28.0908203 L15.3457031,28.1113281 L17.2871094,28.1113281 L17.2871094,29 Z M21,17 L31,17 L31,18 L21,18 L21,17 Z M21,26 L31,26 L31,27 L21,27 L21,26 Z"></path>
</svg>
