<svg xmlns="http://www.w3.org/2000/svg" width="44" height="44" viewBox="0 0 44 44">
  <path fill="currentColor" fill-rule="evenodd" d="M21,17 L31,17 L31,18 L21,18 L21,17 Z M21,26 L31,26 L31,27 L21,27 L21,26 Z M15.5,19 C16.3284271,19 17,18.3284271 17,17.5 C17,16.6715729 16.3284271,16 15.5,16 C14.6715729,16 14,16.6715729 14,17.5 C14,18.3284271 14.6715729,19 15.5,19 Z M15.5,28 C16.3284271,28 17,27.3284271 17,26.5 C17,25.6715729 16.3284271,25 15.5,25 C14.6715729,25 14,25.6715729 14,26.5 C14,27.3284271 14.6715729,28 15.5,28 Z"></path>
</svg>
