<svg xmlns="http://www.w3.org/2000/svg" width="44" height="44" viewBox="0 0 44 44">
  <path fill="currentColor" fill-rule="evenodd" d="M21.3639495,25.4644546 L22.0710624,26.1715674 L22.0668824,26.1757583 L19.9539329,28.2887078 C19.1705728,29.0720679 17.9003677,29.0719406 17.122796,28.2943689 L15.7056311,26.877204 C14.9253975,26.0969704 14.9197822,24.8375772 15.7112922,24.0460671 L17.8242417,21.9331176 L17.8284332,21.9289382 L18.535546,22.636051 L18.5313485,22.6402244 L16.418399,24.7531739 C16.0202244,25.1513484 16.0202175,25.7775768 16.4127379,26.1700972 L17.8299028,27.5872621 C18.2174418,27.9748011 18.8544856,27.9739416 19.2468261,27.581601 L21.3597756,25.4686515 L21.3639495,25.4644546 Z M19.2459531,25.4611537 C19.0488616,25.6582452 18.7250855,25.6540177 18.5355339,25.4644661 C18.3402718,25.2692039 18.3333261,24.9595671 18.5388463,24.7540469 L19.5961941,23.6966991 L20.3033009,24.4038059 L19.2459531,25.4611537 Z M21.7781861,19.3934098 L21.0710733,18.686297 L21.0752532,18.6821061 L23.1882028,16.5691566 C23.9715629,15.7857964 25.2417679,15.7859238 26.0193396,16.5634955 L27.4365045,17.9806604 C28.2167381,18.760894 28.2223535,20.0202872 27.4308434,20.8117972 L25.3178939,22.9247468 L25.3137025,22.9289261 L24.6065896,22.2218133 L24.6107871,22.21764 L26.7237367,20.1046905 C27.1219112,19.7065159 27.1219182,19.0802876 26.7293977,18.6877671 L25.3122329,17.2706023 C24.9246939,16.8830633 24.2876501,16.8839228 23.8953095,17.2762633 L21.78236,19.3892129 L21.7781861,19.3934098 Z M23.8961825,19.3967107 C24.0932741,19.1996192 24.4170501,19.2038467 24.6066017,19.3933983 C24.8018639,19.5886604 24.8088095,19.8982973 24.6032893,20.1038175 L23.5459415,21.1611652 L22.8388348,20.4540585 L23.8961825,19.3967107 Z M26.7279221,29 L15,17.2720779 L16.4142136,15.8578644 L28.1421356,27.5857864 L26.7279221,29 Z"></path>
</svg>
