<svg xmlns="http://www.w3.org/2000/svg" viewBox="0 0 18 18">
  <path fill="currentColor" d="M13.8989827,14 C15.1955328,12.729483 16,10.9586882 16,9 C16,5.13400675 12.8659932,2 9,2 C5.13400675,2 2,5.13400675 2,9 C2,12.5264719 4.60770586,15.4438815 8,15.9291111 L8,13.8999819 C5.71775968,13.4367116 4,11.4189579 4,9 C4,6.23857625 6.23857625,4 9,4 C11.7614237,4 14,6.23857625 14,9 C14,10.6358178 13.2144467,12.0881599 12,13.0003662 L12,10 L10,10 L10,16 L11,16 L16,16 L16,14 L13.8989827,14 Z"></path>
</svg>
