<svg xmlns="http://www.w3.org/2000/svg" viewBox="0 0 44 44">
  <path fill="#57ca5f" d="M23,21 L16.9955775,21 C16.444837,21 16,21.4463856 16,21.9970301 L16,28.0029699 C16,28.5469637 16.4457352,29 16.9955775,29 L26.0044225,29 C26.555163,29 27,28.5536144 27,28.0029699 L27,21.9970301 C27,21.4530363 26.5542648,21 26.0044225,21 L25,21 L25,18.5 C25,16.5670034 23.4329966,15 21.5,15 C19.5670034,15 18,16.5670034 18,18.5 L18,19 L20,19 L20,18.497101 C20,17.670275 20.6657972,17 21.5,17 C22.3284271,17 23,17.671656 23,18.497101 L23,21 Z"></path>
</svg>
