<svg xmlns="http://www.w3.org/2000/svg" viewBox="0 0 34 34">
  <circle fill="#8d96b2" cx="17" cy="17" r="17"></circle>
  <path fill="#fff" fill-rule="evenodd" d="M10,12 C10,11.4477153 10.4499488,11 11.0068455,11 L22.9931545,11 C23.5492199,11 24,11.4438648 24,12 C24,12.5522847 23.5500512,13 22.9931545,13 L11.0068455,13 C10.4507801,13 10,12.5561352 10,12 Z M10,17 C10,16.4477153 10.4499488,16 11.0068455,16 L22.9931545,16 C23.5492199,16 24,16.4438648 24,17 C24,17.5522847 23.5500512,18 22.9931545,18 L11.0068455,18 C10.4507801,18 10,17.5561352 10,17 Z M10,22 C10,21.4477153 10.4499488,21 11.0068455,21 L22.9931545,21 C23.5492199,21 24,21.4438648 24,22 C24,22.5522847 23.5500512,23 22.9931545,23 L11.0068455,23 C10.4507801,23 10,22.5561352 10,22 Z"></path>
</svg>
