<svg xmlns="http://www.w3.org/2000/svg" viewBox="0 0 34 34">
  <circle fill="#b75afd" cx="17" cy="17" r="17"></circle>
  <path fill="#fff" fill-rule="evenodd" d="M17.0644529,23 C21.4827094,23 24.982343,18.4006132 24.9999355,16.8546078 C25.017528,15.3086023 21.418231,11 16.9999745,11 C12.581718,11 9.00811526,15.2632097 9.00001345,16.8546078 C8.99191163,18.4460058 12.6461964,23 17.0644529,23 Z M16.9999998,21 C19.2091388,21 20.9999998,19.209139 20.9999998,17 C20.9999998,14.790861 19.2091388,13 16.9999998,13 C14.7908608,13 12.9999998,14.790861 12.9999998,17 C12.9999998,19.209139 14.7908608,21 16.9999998,21 Z M16.9999998,19 C18.1045693,19 18.9999998,18.1045695 18.9999998,17 C18.9999998,15.8954305 18.1045693,15 16.9999998,15 C15.8954303,15 14.9999998,15.8954305 14.9999998,17 C14.9999998,18.1045695 15.8954303,19 16.9999998,19 Z"></path>
</svg>
