<svg xmlns="http://www.w3.org/2000/svg" width="32" height="28" viewBox="0 0 32 28">
  <path fill="#babbbd" d="M27,9.5 C27,10.33 26.33,11 25.5,11 C24.67,11 24,10.33 24,9.5 C24,9.4 24.01,9.31 24.03,9.22 L25.22,8.03 C25.31,8.01 25.4,8 25.5,8 C26.33,8 27,8.67 27,9.5 Z M19.94,13.31 L21.55,11.7 C21.84,12.41 22,13.19 22,14 C22,17.31 19.31,20 16,20 C15.19,20 14.41,19.84 13.7,19.55 L15.31,17.94 C15.53,17.98 15.76,18 16,18 C18.21,18 20,16.21 20,14 C20,13.76 19.98,13.53 19.94,13.31 Z M32,3 L32,25 L8.25,25 L10.25,23 L30,23 L30,5 L28.25,5 L30.25,3 L32,3 Z M10.72,16.86 L4.58,23 L2,23 L2,5 L9.41,5 L12.41,2 L19.59,2 L22.59,5 L18.86,8.72 C18.21,8.37 17.48,8.13 16.71,8.04 C16.48,8.01 16.24,8 16,8 C12.69,8 10,10.69 10,14 C10,14.24 10.01,14.48 10.04,14.71 C10.13,15.48 10.37,16.21 10.72,16.86 Z M12.24,15.34 C12.08,14.92 12,14.47 12,14 C12,13.43 12.12,12.9 12.34,12.41 C12.73,11.48 13.48,10.73 14.41,10.34 C14.9,10.12 15.43,10 16,10 C16.47,10 16.92,10.08 17.34,10.24 L12.24,15.34 Z M30.42,0 L27.58,0 L23.995,3.585 L20.41,0 L11.59,0 L8.59,3 L0,3 L0,25 L2.58,25 L0,27.58 L0,28 L2.42,28 L30.42,0 Z"></path>
</svg>
