<svg xmlns="http://www.w3.org/2000/svg" viewBox="0 0 34 34">
  <circle fill="#fda800" cx="17" cy="17" r="17"></circle>
  <path fill="#fff" fill-rule="evenodd" d="M16.9938164,11.7843581 L19.8642412,14.6547829 C20.2637905,15.0543322 20.8900018,15.0473785 21.2805261,14.6568542 C21.6737731,14.2636073 21.670123,13.6322376 21.2784548,13.2405693 L17.0378854,9 L16.9938164,9.04406898 L16.9497475,9 L12.7091781,13.2405693 C12.3096289,13.6401186 12.3165825,14.26633 12.7071068,14.6568542 C13.1003537,15.0501012 13.7317234,15.0464512 14.1233917,14.6547829 L16.9938164,11.7843581 Z M16.9928498,21.5786362 L14.1233917,18.7091781 C13.7238424,18.3096289 13.0976311,18.3165825 12.7071068,18.7071068 C12.3138598,19.1003537 12.3175099,19.7317234 12.7091781,20.1233917 L16.9497475,24.363961 L16.9928498,24.3208587 L17.0359521,24.363961 L21.2765215,20.1233917 C21.6760707,19.7238424 21.6691171,19.0976311 21.2785928,18.7071068 C20.8853459,18.3138598 20.2539762,18.3175099 19.8623079,18.7091781 L16.9928498,21.5786362 Z"></path>
</svg>
