<svg xmlns="http://www.w3.org/2000/svg" viewBox="0 0 34 34">
  <circle fill="#b75afd" cx="17" cy="17" r="17"></circle>
  <path fill="#fff" fill-rule="evenodd" d="M20.9661048,12.2907589 C23.3819873,13.6778411 25.0117878,15.9733024 24.9999355,17.0148618 C24.982343,18.5608673 21.4827094,23.160254 17.0644529,23.160254 C16.315057,23.160254 15.5876395,23.0292414 14.8963436,22.8038937 L12.8660254,26.3205081 L11.1339746,25.3205081 L13.0738346,21.960572 C10.6466723,20.4969236 8.99456297,18.0854719 9.00001345,17.0148618 C9.00811526,15.4234637 12.581718,11.160254 16.9999745,11.160254 C17.7342264,11.160254 18.4458605,11.279248 19.1220352,11.4847812 L21.1339746,8 L22.8660254,9 L20.9661048,12.2907589 Z M19.8025175,14.3061513 C20.5415859,15.0319444 20.9999998,16.0425651 20.9999998,17.160254 C20.9999998,19.369393 19.2091388,21.160254 16.9999998,21.160254 C16.6290428,21.160254 16.2698799,21.1097574 15.9290101,21.0152629 L19.8025175,14.3061513 Z M18.0709898,13.3052453 C17.7301199,13.2107508 17.3709569,13.160254 16.9999998,13.160254 C14.7908608,13.160254 12.9999998,14.951115 12.9999998,17.160254 C12.9999998,18.2779432 13.4584137,19.288564 14.1974823,20.0143571 L18.0709898,13.3052453 Z"></path>
</svg>
