<svg xmlns="http://www.w3.org/2000/svg" width="34" height="34" viewBox="0 0 34 34">
  <path fill="#ebedf4" fill-rule="evenodd" d="M0,17 C0,7.61115925 7.60909491,0 17,0 C26.3888407,0 34,7.60909491 34,17 C34,26.3888407 26.3909051,34 17,34 C7.61115925,34 0,26.3909051 0,17 Z M1,17 C1,8.163444 8.16150109,1 17,1 C25.836556,1 33,8.16150109 33,17 C33,25.836556 25.8384989,33 17,33 C8.163444,33 1,25.8384989 1,17 Z"></path>
  <polygon fill="#aebbc9" fill-rule="evenodd" points="13 16 13 18 21 18 21 16"></polygon>
</svg>
